<svg width="99" height="87" viewBox="0 0 99 87" fill="none" xmlns="http://www.w3.org/2000/svg">
<path d="M1.51534 43.691C1.51534 32.037 4.299 21.5595 8.72146 14.0463C13.1642 6.49866 19.0851 2.19101 25.3264 2.19101C31.5677 2.19101 37.4886 6.49866 41.9313 14.0463C46.3538 21.5595 49.1375 32.037 49.1375 43.691C49.1375 55.3449 46.3538 65.8225 41.9313 73.3356C37.4886 80.8832 31.5677 85.1909 25.3264 85.1909C19.0851 85.1909 13.1642 80.8832 8.72146 73.3356C4.299 65.8225 1.51534 55.3449 1.51534 43.691Z" fill="white" stroke="black" stroke-width="3"/>
<path d="M48.8933 43.6911C48.8933 32.0371 51.6769 21.5596 56.0994 14.0464C60.5422 6.49877 66.4631 2.19112 72.7043 2.19112C78.9456 2.19112 84.8665 6.49877 89.3093 14.0464C93.7317 21.5596 96.5154 32.0371 96.5154 43.6911C96.5154 55.345 93.7317 65.8226 89.3093 73.3357C84.8665 80.8834 78.9456 85.191 72.7043 85.191C66.4631 85.191 60.5422 80.8834 56.0994 73.3357C51.6769 65.8226 48.8933 55.345 48.8933 43.6911Z" fill="white" stroke="black" stroke-width="3"/>
<path fill-rule="evenodd" clip-rule="evenodd" d="M83.7369 27.1469C78.7188 27.1469 74.6509 34.3912 74.6509 43.3275C74.6509 52.2638 78.7188 59.508 83.7369 59.508C88.755 59.508 92.8229 52.2638 92.8229 43.3275C92.8229 34.3912 88.755 27.1469 83.7369 27.1469ZM88.9296 47.2099C87.8543 47.2099 86.9826 48.0792 86.9826 49.1516C86.9826 50.2239 87.8543 51.0932 88.9296 51.0932C90.0049 51.0932 90.8766 50.2239 90.8766 49.1516C90.8766 48.0792 90.0049 47.2099 88.9296 47.2099Z" fill="black"/>
<path fill-rule="evenodd" clip-rule="evenodd" d="M83.7369 27.1469C78.7188 27.1469 74.6509 34.3912 74.6509 43.3275C74.6509 52.2638 78.7188 59.508 83.7369 59.508C88.755 59.508 92.8229 52.2638 92.8229 43.3275C92.8229 34.3912 88.755 27.1469 83.7369 27.1469ZM88.9296 47.2099C87.8543 47.2099 86.9826 48.0792 86.9826 49.1516C86.9826 50.2239 87.8543 51.0932 88.9296 51.0932C90.0049 51.0932 90.8766 50.2239 90.8766 49.1516C90.8766 48.0792 90.0049 47.2099 88.9296 47.2099Z" fill="black"/>
<path fill-rule="evenodd" clip-rule="evenodd" d="M83.7369 27.1469C78.7188 27.1469 74.6509 34.3912 74.6509 43.3275C74.6509 52.2638 78.7188 59.508 83.7369 59.508C88.755 59.508 92.8229 52.2638 92.8229 43.3275C92.8229 34.3912 88.755 27.1469 83.7369 27.1469ZM88.9296 47.2099C87.8543 47.2099 86.9826 48.0792 86.9826 49.1516C86.9826 50.2239 87.8543 51.0932 88.9296 51.0932C90.0049 51.0932 90.8766 50.2239 90.8766 49.1516C90.8766 48.0792 90.0049 47.2099 88.9296 47.2099Z" fill="black"/>
<path fill-rule="evenodd" clip-rule="evenodd" d="M83.7369 27.1469C78.7188 27.1469 74.6509 34.3912 74.6509 43.3275C74.6509 52.2638 78.7188 59.508 83.7369 59.508C88.755 59.508 92.8229 52.2638 92.8229 43.3275C92.8229 34.3912 88.755 27.1469 83.7369 27.1469ZM88.9296 47.2099C87.8543 47.2099 86.9826 48.0792 86.9826 49.1516C86.9826 50.2239 87.8543 51.0932 88.9296 51.0932C90.0049 51.0932 90.8766 50.2239 90.8766 49.1516C90.8766 48.0792 90.0049 47.2099 88.9296 47.2099Z" fill="black"/>
<path fill-rule="evenodd" clip-rule="evenodd" d="M34.0528 27.1462C29.0347 27.1462 24.9668 34.3905 24.9668 43.3268C24.9668 52.263 29.0347 59.5073 34.0528 59.5073C39.0709 59.5073 43.1388 52.263 43.1388 43.3268C43.1388 34.3905 39.0709 27.1462 34.0528 27.1462ZM39.2441 47.2103C38.1688 47.2103 37.2971 48.0796 37.2971 49.152C37.2971 50.2243 38.1688 51.0937 39.2441 51.0937C40.3194 51.0937 41.1911 50.2243 41.1911 49.152C41.1911 48.0796 40.3194 47.2103 39.2441 47.2103Z" fill="black"/>
<path fill-rule="evenodd" clip-rule="evenodd" d="M34.0528 27.1462C29.0347 27.1462 24.9668 34.3905 24.9668 43.3268C24.9668 52.263 29.0347 59.5073 34.0528 59.5073C39.0709 59.5073 43.1388 52.263 43.1388 43.3268C43.1388 34.3905 39.0709 27.1462 34.0528 27.1462ZM39.2441 47.2103C38.1688 47.2103 37.2971 48.0796 37.2971 49.152C37.2971 50.2243 38.1688 51.0937 39.2441 51.0937C40.3194 51.0937 41.1911 50.2243 41.1911 49.152C41.1911 48.0796 40.3194 47.2103 39.2441 47.2103Z" fill="black"/>
<path fill-rule="evenodd" clip-rule="evenodd" d="M34.0528 27.1462C29.0347 27.1462 24.9668 34.3905 24.9668 43.3268C24.9668 52.263 29.0347 59.5073 34.0528 59.5073C39.0709 59.5073 43.1388 52.263 43.1388 43.3268C43.1388 34.3905 39.0709 27.1462 34.0528 27.1462ZM39.2441 47.2103C38.1688 47.2103 37.2971 48.0796 37.2971 49.152C37.2971 50.2243 38.1688 51.0937 39.2441 51.0937C40.3194 51.0937 41.1911 50.2243 41.1911 49.152C41.1911 48.0796 40.3194 47.2103 39.2441 47.2103Z" fill="black"/>
<path fill-rule="evenodd" clip-rule="evenodd" d="M34.0528 27.1462C29.0347 27.1462 24.9668 34.3905 24.9668 43.3268C24.9668 52.263 29.0347 59.5073 34.0528 59.5073C39.0709 59.5073 43.1388 52.263 43.1388 43.3268C43.1388 34.3905 39.0709 27.1462 34.0528 27.1462ZM39.2441 47.2103C38.1688 47.2103 37.2971 48.0796 37.2971 49.152C37.2971 50.2243 38.1688 51.0937 39.2441 51.0937C40.3194 51.0937 41.1911 50.2243 41.1911 49.152C41.1911 48.0796 40.3194 47.2103 39.2441 47.2103Z" fill="black"/>
</svg>

